<?xml version="1.0" encoding="utf-8"?>
<svg version="1.1" id="favicon" xmlns="http://www.w3.org/2000/svg" xmlns:xlink="http://www.w3.org/1999/xlink" x="0px" y="0px" viewBox="0 0 36 36" style="enable-background:new 0 0 36 36;" xml:space="preserve">
<style type="text/css">
.st0{fill-rule:evenodd;clip-rule:evenodd;fill:#7859CF;}
</style>
<path class="st0" d="M34,18c0,2.9-0.6,5.6-1.7,8H19c2.5-3.8,5-8.3,5-13c0-6-4.1-11-9.6-12.5C15.6,0.2,16.8,0,18,0
C26.8,0,34,8.1,34,18z M20,13c0-5-4-9-9-9c-6.7,0-9,8.5-9,14c0,9.9,7.2,18,16,18c4.7,0,9-2.3,11.9-6H11c0.4-0.4,0.7-0.9,1.1-1.4
C15.6,24.2,20,18.7,20,13z"/>
</svg>
